Coordinates
version=1
nRows=60
nColumns=12
inDegrees=yes

Units are S.I. units (second, meters, Newtons, ...)
Angles are in degrees

endheader
time	SC_y	SC_z	SC_x	AC_y	AC_z	AC_x	GH_y	GH_z	GH_yy	EL_x	PS_y
       0.0              -38.24          12.82          53.26          36.96          9.275          16.18          163.6          67.69          165.1          26.79          153.4
   0.02637              -38.24          12.82          53.25          36.96          9.271          16.17          163.6          67.69          165.0          26.79          153.4
   0.05273              -38.23          12.82          53.25          36.97          9.267          16.17          163.6          67.68          165.0          26.79          153.3
    0.0791              -38.23          12.82          53.24          36.97          9.262          16.17          163.6          67.67          164.9          26.79          153.3
    0.1055              -38.22          12.82          53.24          36.97          9.257          16.16          163.6          67.66          164.9          26.79          153.3
    0.1318              -38.22          12.83          53.23          36.97          9.252          16.16          163.6          67.65          164.8          26.78          153.3
    0.1582              -38.21          12.83          53.23          36.97          9.246          16.16          163.6          67.64          164.7          26.78          153.3
    0.1846              -38.21          12.83          53.22          36.97           9.24          16.15          163.6          67.63          164.7          26.78          153.3
    0.2109               -38.2          12.83          53.22          36.97          9.234          16.15          163.6          67.62          164.6          26.78          153.3
    0.2373               -38.2          12.83          53.21          36.97          9.227          16.14          163.6           67.6          164.5          26.77          153.3
    0.2637              -38.19          12.83           53.2          36.97           9.22          16.14          163.6          67.59          164.4          26.77          153.3
      0.29              -38.18          12.83          53.19          36.97          9.212          16.13          163.6          67.57          164.4          26.77          153.3
    0.3164              -38.17          12.83          53.18          36.97          9.203          16.13          163.6          67.56          164.3          26.76          153.3
    0.3428              -38.16          12.83          53.17          36.98          9.194          16.12          163.6          67.54          164.1          26.76          153.3
    0.3691              -38.15          12.83          53.16          36.98          9.184          16.12          163.6          67.52          164.0          26.75          153.3
    0.3955              -38.14          12.83          53.15          36.98          9.173          16.11          163.6           67.5          163.9          26.75          153.2
    0.4218              -38.13          12.84          53.14          36.98          9.161           16.1          163.6          67.48          163.8          26.74          153.2
    0.4482              -38.12          12.84          53.13          36.98          9.148          16.09          163.6          67.45          163.6          26.74          153.2
    0.4746              -38.11          12.84          53.11          36.98          9.134          16.08          163.6          67.43          163.5          26.73          153.2
    0.5009              -38.09          12.84           53.1          36.99          9.119          16.07          163.6           67.4          163.3          26.73          153.2
    0.5273              -38.07          12.84          53.08          36.99          9.102          16.06          163.6          67.37          163.1          26.72          153.2
    0.5537              -38.06          12.84          53.06          36.99          9.083          16.05          163.6          67.33          162.9          26.71          153.1
      0.58              -38.04          12.85          53.04          36.99          9.063          16.04          163.6          67.29          162.6           26.7          153.1
    0.6064              -38.02          12.85          53.02           37.0           9.04          16.02          163.6          67.25          162.4          26.69          153.1
    0.6328              -37.99          12.85          52.99           37.0          9.015           16.0          163.7           67.2          162.1          26.68          153.1
    0.6591              -37.96          12.85          52.96           37.0          8.987          15.99          163.7          67.15          161.8          26.67          153.0
    0.6855              -37.93          12.86          52.93          37.01          8.955          15.97          163.7          67.09          161.4          26.65          153.0
    0.7119               -37.9          12.86          52.89          37.01           8.92          15.94          163.7          67.02          161.0          26.64          153.0
    0.7382              -37.86          12.87          52.85          37.02          8.879          15.92          163.7          66.95          160.5          26.62          152.9
    0.7646              -37.82          12.87           52.8          37.03          8.834          15.89          163.7          66.86          160.0           26.6          152.9
     0.791              -37.77          12.88          52.75          37.03          8.782          15.85          163.7          66.77          159.4          26.58          152.8
    0.8173              -37.71          12.88          52.69          37.04          8.722          15.81          163.8          66.65          158.7          26.55          152.7
    0.8437              -37.64          12.89          52.62          37.05          8.653          15.77          163.8          66.52          157.9          26.52          152.7
    0.8701              -37.56           12.9          52.53          37.06          8.573          15.71          163.8          66.37          157.0          26.48          152.6
    0.8964              -37.47          12.91          52.44          37.08          8.479          15.65          163.9           66.2          156.0          26.44          152.5
    0.9228              -37.37          12.92          52.32          37.09          8.369          15.58          163.9          65.99          154.7          26.39          152.4
    0.9492              -37.24          12.94          52.19          37.11          8.237          15.49          163.9          65.74          153.2          26.33          152.2
    0.9755              -37.09          12.95          52.03          37.13           8.08          15.39          164.0          65.44          151.4          26.26          152.0
     1.002               -36.9          12.97          51.83          37.16           7.89          15.26          164.1          65.09          149.2          26.18          151.8
     1.028              -36.68           13.0          51.59          37.19          7.657          15.11          164.2          64.65          146.5          26.07          151.6
     1.055               -36.4          13.03          51.29          37.23           7.37          14.92          164.3          64.11          143.2          25.95          151.3
     1.081              -36.05          13.07          50.92          37.28          7.012          14.69          164.4          63.43          139.1          25.79          150.9
     1.107              -35.62          13.12          50.46          37.34          6.561          14.39          164.6          62.59          134.0          25.59          150.4
     1.134              -35.06          13.18          49.87          37.42          5.987          14.01          164.8          61.51          127.4          25.33          149.7
      1.16              -34.36          13.26          49.11          37.53          5.253          13.53          165.0          60.13          119.0           25.0          148.9
     1.186              -33.44          13.37          48.14          37.66          4.312          12.91          165.4          58.35          108.2          24.58          147.9
     1.213              -32.28           13.5           46.9          37.83          3.109          12.12          165.8          56.09          94.41          24.05          146.6
     1.239              -30.82          13.66          45.34          38.04          1.596          11.13          166.4          53.24          77.07          23.37          144.9
     1.266              -29.04          13.86          43.44           38.3        -0.2475          9.916          167.1          49.77          55.95          22.55          142.9
     1.292              -26.97           14.1          41.24           38.6         -2.384          8.512          167.9          45.75          31.46           21.6          140.5
     1.318              -24.74          14.35          38.85          38.92         -4.698          6.991          168.7           41.4          4.943          20.57          138.0
     1.345               -22.5           14.6          36.47          39.24         -7.011           5.47          169.6          37.05         -21.57          19.54          135.4
     1.371              -20.44          14.84          34.26          39.54         -9.148          4.066          170.4          33.03         -46.06          18.59          133.0
     1.397              -18.65          15.04          32.36           39.8         -10.99          2.854          171.0          29.56         -67.19          17.77          131.0
     1.424              -17.19           15.2           30.8          40.01          -12.5           1.86          171.6          26.71         -84.52          17.09          129.3
      1.45              -16.03          15.34          29.56          40.18         -13.71          1.069          172.0          24.45         -98.31          16.56          128.0
     1.476              -15.12          15.44          28.59          40.31         -14.65         0.4501          172.4          22.67         -109.1          16.14          127.0
     1.503              -14.41          15.52          27.83          40.42         -15.38       -0.03226          172.7          21.29         -117.5          15.81          126.2
     1.529              -13.85          15.58          27.24           40.5         -15.96        -0.4092          172.9          20.21         -124.1          15.55          125.5
     1.556              -13.42          15.63          26.78          40.56         -16.41        -0.7056          173.0          19.37         -129.3          15.35          125.0
